<?xml version="1.0" encoding="UTF-8" standalone="no"?>
<!DOCTYPE svg PUBLIC "-//W3C//DTD SVG 1.1//EN"
 "http://www.w3.org/Graphics/SVG/1.1/DTD/svg11.dtd">
<!-- Generated by graphviz version 2.38.0 (20140413.2041)
 -->
<!-- Title: G Pages: 1 -->
<svg width="214pt" height="1525pt"
 viewBox="0.00 0.00 214.48 1525.35" xmlns="http://www.w3.org/2000/svg" xmlns:xlink="http://www.w3.org/1999/xlink">
<g id="graph0" class="graph" transform="scale(1 1) rotate(0) translate(4 1521.35)">
<title>G</title>
<polygon fill="white" stroke="none" points="-4,4 -4,-1521.35 210.475,-1521.35 210.475,4 -4,4"/>
<!-- n1 -->
<g id="node1" class="node"><title>n1</title>
<ellipse fill="none" stroke="darkgreen" cx="103.238" cy="-1479.87" rx="60.623" ry="37.4533"/>
<text text-anchor="middle" x="103.238" y="-1491.17" font-family="Times,serif" font-size="14.00">Input</text>
<text text-anchor="middle" x="103.238" y="-1476.17" font-family="Times,serif" font-size="14.00">Storage id: 1</text>
<text text-anchor="middle" x="103.238" y="-1461.17" font-family="Times,serif" font-size="14.00">Dim: 3856</text>
</g>
<!-- n2 -->
<g id="node2" class="node"><title>n2</title>
<ellipse fill="none" stroke="darkslategray" cx="103.238" cy="-1368.92" rx="103.476" ry="37.4533"/>
<text text-anchor="middle" x="103.238" y="-1380.22" font-family="Times,serif" font-size="14.00">nn.Linear(3856 &#45;&gt; 200)</text>
<text text-anchor="middle" x="103.238" y="-1365.22" font-family="Times,serif" font-size="14.00">Storage id: 2</text>
<text text-anchor="middle" x="103.238" y="-1350.22" font-family="Times,serif" font-size="14.00">Dim: 200</text>
</g>
<!-- n1&#45;&gt;n2 -->
<g id="edge1" class="edge"><title>n1&#45;&gt;n2</title>
<path fill="none" stroke="black" d="M103.238,-1442.29C103.238,-1434.11 103.238,-1425.33 103.238,-1416.81"/>
<polygon fill="black" stroke="black" points="106.738,-1416.59 103.238,-1406.59 99.7377,-1416.59 106.738,-1416.59"/>
</g>
<!-- n3 -->
<g id="node3" class="node"><title>n3</title>
<ellipse fill="none" stroke="#ff7f00" cx="103.238" cy="-1257.96" rx="60.623" ry="37.4533"/>
<text text-anchor="middle" x="103.238" y="-1269.26" font-family="Times,serif" font-size="14.00">nn.Sigmoid</text>
<text text-anchor="middle" x="103.238" y="-1254.26" font-family="Times,serif" font-size="14.00">Storage id: 3</text>
<text text-anchor="middle" x="103.238" y="-1239.26" font-family="Times,serif" font-size="14.00">Dim: 200</text>
</g>
<!-- n2&#45;&gt;n3 -->
<g id="edge2" class="edge"><title>n2&#45;&gt;n3</title>
<path fill="none" stroke="black" d="M103.238,-1331.33C103.238,-1323.16 103.238,-1314.38 103.238,-1305.85"/>
<polygon fill="black" stroke="black" points="106.738,-1305.64 103.238,-1295.64 99.7377,-1305.64 106.738,-1305.64"/>
</g>
<!-- n4 -->
<g id="node4" class="node"><title>n4</title>
<ellipse fill="none" stroke="darkturquoise" cx="103.238" cy="-1147.01" rx="98.0761" ry="37.4533"/>
<text text-anchor="middle" x="103.238" y="-1158.31" font-family="Times,serif" font-size="14.00">nn.Linear(200 &#45;&gt; 200)</text>
<text text-anchor="middle" x="103.238" y="-1143.31" font-family="Times,serif" font-size="14.00">Storage id: 4</text>
<text text-anchor="middle" x="103.238" y="-1128.31" font-family="Times,serif" font-size="14.00">Dim: 200</text>
</g>
<!-- n3&#45;&gt;n4 -->
<g id="edge3" class="edge"><title>n3&#45;&gt;n4</title>
<path fill="none" stroke="black" d="M103.238,-1220.38C103.238,-1212.21 103.238,-1203.43 103.238,-1194.9"/>
<polygon fill="black" stroke="black" points="106.738,-1194.68 103.238,-1184.68 99.7377,-1194.68 106.738,-1194.68"/>
</g>
<!-- n5 -->
<g id="node5" class="node"><title>n5</title>
<ellipse fill="none" stroke="#f0ffff" cx="103.238" cy="-1036.06" rx="60.623" ry="37.4533"/>
<text text-anchor="middle" x="103.238" y="-1047.36" font-family="Times,serif" font-size="14.00">nn.Tanh</text>
<text text-anchor="middle" x="103.238" y="-1032.36" font-family="Times,serif" font-size="14.00">Storage id: 5</text>
<text text-anchor="middle" x="103.238" y="-1017.36" font-family="Times,serif" font-size="14.00">Dim: 200</text>
</g>
<!-- n4&#45;&gt;n5 -->
<g id="edge4" class="edge"><title>n4&#45;&gt;n5</title>
<path fill="none" stroke="black" d="M103.238,-1109.43C103.238,-1101.25 103.238,-1092.47 103.238,-1083.95"/>
<polygon fill="black" stroke="black" points="106.738,-1083.73 103.238,-1073.73 99.7377,-1083.73 106.738,-1083.73"/>
</g>
<!-- n6 -->
<g id="node6" class="node"><title>n6</title>
<ellipse fill="none" stroke="#cd1076" cx="103.238" cy="-925.103" rx="98.0761" ry="37.4533"/>
<text text-anchor="middle" x="103.238" y="-936.403" font-family="Times,serif" font-size="14.00">nn.Linear(200 &#45;&gt; 200)</text>
<text text-anchor="middle" x="103.238" y="-921.403" font-family="Times,serif" font-size="14.00">Storage id: 6</text>
<text text-anchor="middle" x="103.238" y="-906.403" font-family="Times,serif" font-size="14.00">Dim: 200</text>
</g>
<!-- n5&#45;&gt;n6 -->
<g id="edge5" class="edge"><title>n5&#45;&gt;n6</title>
<path fill="none" stroke="black" d="M103.238,-998.474C103.238,-990.299 103.238,-981.519 103.238,-972.993"/>
<polygon fill="black" stroke="black" points="106.738,-972.775 103.238,-962.775 99.7377,-972.775 106.738,-972.775"/>
</g>
<!-- n7 -->
<g id="node7" class="node"><title>n7</title>
<ellipse fill="none" stroke="#cdaa7d" cx="103.238" cy="-814.15" rx="60.623" ry="37.4533"/>
<text text-anchor="middle" x="103.238" y="-825.45" font-family="Times,serif" font-size="14.00">nn.Tanh</text>
<text text-anchor="middle" x="103.238" y="-810.45" font-family="Times,serif" font-size="14.00">Storage id: 7</text>
<text text-anchor="middle" x="103.238" y="-795.45" font-family="Times,serif" font-size="14.00">Dim: 200</text>
</g>
<!-- n6&#45;&gt;n7 -->
<g id="edge6" class="edge"><title>n6&#45;&gt;n7</title>
<path fill="none" stroke="black" d="M103.238,-887.52C103.238,-879.345 103.238,-870.566 103.238,-862.039"/>
<polygon fill="black" stroke="black" points="106.738,-861.822 103.238,-851.822 99.7377,-861.822 106.738,-861.822"/>
</g>
<!-- n8 -->
<g id="node8" class="node"><title>n8</title>
<ellipse fill="none" stroke="gainsboro" cx="103.238" cy="-703.197" rx="98.0761" ry="37.4533"/>
<text text-anchor="middle" x="103.238" y="-714.497" font-family="Times,serif" font-size="14.00">nn.Linear(200 &#45;&gt; 200)</text>
<text text-anchor="middle" x="103.238" y="-699.497" font-family="Times,serif" font-size="14.00">Storage id: 8</text>
<text text-anchor="middle" x="103.238" y="-684.497" font-family="Times,serif" font-size="14.00">Dim: 200</text>
</g>
<!-- n7&#45;&gt;n8 -->
<g id="edge7" class="edge"><title>n7&#45;&gt;n8</title>
<path fill="none" stroke="black" d="M103.238,-776.567C103.238,-768.392 103.238,-759.613 103.238,-751.086"/>
<polygon fill="black" stroke="black" points="106.738,-750.868 103.238,-740.868 99.7377,-750.868 106.738,-750.868"/>
</g>
<!-- n9 -->
<g id="node9" class="node"><title>n9</title>
<ellipse fill="none" stroke="#c1cdcd" cx="103.238" cy="-592.243" rx="60.623" ry="37.4533"/>
<text text-anchor="middle" x="103.238" y="-603.543" font-family="Times,serif" font-size="14.00">nn.Tanh</text>
<text text-anchor="middle" x="103.238" y="-588.543" font-family="Times,serif" font-size="14.00">Storage id: 9</text>
<text text-anchor="middle" x="103.238" y="-573.543" font-family="Times,serif" font-size="14.00">Dim: 200</text>
</g>
<!-- n8&#45;&gt;n9 -->
<g id="edge8" class="edge"><title>n8&#45;&gt;n9</title>
<path fill="none" stroke="black" d="M103.238,-665.614C103.238,-657.439 103.238,-648.659 103.238,-640.133"/>
<polygon fill="black" stroke="black" points="106.738,-639.915 103.238,-629.915 99.7377,-639.915 106.738,-639.915"/>
</g>
<!-- n10 -->
<g id="node10" class="node"><title>n10</title>
<ellipse fill="none" stroke="#ee7600" cx="103.238" cy="-481.29" rx="98.0761" ry="37.4533"/>
<text text-anchor="middle" x="103.238" y="-492.59" font-family="Times,serif" font-size="14.00">nn.Linear(200 &#45;&gt; 200)</text>
<text text-anchor="middle" x="103.238" y="-477.59" font-family="Times,serif" font-size="14.00">Storage id: 10</text>
<text text-anchor="middle" x="103.238" y="-462.59" font-family="Times,serif" font-size="14.00">Dim: 200</text>
</g>
<!-- n9&#45;&gt;n10 -->
<g id="edge9" class="edge"><title>n9&#45;&gt;n10</title>
<path fill="none" stroke="black" d="M103.238,-554.66C103.238,-546.485 103.238,-537.706 103.238,-529.179"/>
<polygon fill="black" stroke="black" points="106.738,-528.962 103.238,-518.962 99.7377,-528.962 106.738,-528.962"/>
</g>
<!-- n11 -->
<g id="node11" class="node"><title>n11</title>
<ellipse fill="none" stroke="#bcee68" cx="103.238" cy="-370.337" rx="65.5227" ry="37.4533"/>
<text text-anchor="middle" x="103.238" y="-381.637" font-family="Times,serif" font-size="14.00">nn.Tanh</text>
<text text-anchor="middle" x="103.238" y="-366.637" font-family="Times,serif" font-size="14.00">Storage id: 11</text>
<text text-anchor="middle" x="103.238" y="-351.637" font-family="Times,serif" font-size="14.00">Dim: 200</text>
</g>
<!-- n10&#45;&gt;n11 -->
<g id="edge10" class="edge"><title>n10&#45;&gt;n11</title>
<path fill="none" stroke="black" d="M103.238,-443.707C103.238,-435.532 103.238,-426.753 103.238,-418.226"/>
<polygon fill="black" stroke="black" points="106.738,-418.008 103.238,-408.008 99.7377,-418.009 106.738,-418.008"/>
</g>
<!-- n12 -->
<g id="node12" class="node"><title>n12</title>
<ellipse fill="none" stroke="#698b69" cx="103.238" cy="-259.383" rx="98.0761" ry="37.4533"/>
<text text-anchor="middle" x="103.238" y="-270.683" font-family="Times,serif" font-size="14.00">nn.Linear(200 &#45;&gt; 200)</text>
<text text-anchor="middle" x="103.238" y="-255.683" font-family="Times,serif" font-size="14.00">Storage id: 12</text>
<text text-anchor="middle" x="103.238" y="-240.683" font-family="Times,serif" font-size="14.00">Dim: 200</text>
</g>
<!-- n11&#45;&gt;n12 -->
<g id="edge11" class="edge"><title>n11&#45;&gt;n12</title>
<path fill="none" stroke="black" d="M103.238,-332.754C103.238,-324.579 103.238,-315.799 103.238,-307.273"/>
<polygon fill="black" stroke="black" points="106.738,-307.055 103.238,-297.055 99.7377,-307.055 106.738,-307.055"/>
</g>
<!-- n13 -->
<g id="node13" class="node"><title>n13</title>
<ellipse fill="none" stroke="#7fffd4" cx="103.238" cy="-148.43" rx="65.5227" ry="37.4533"/>
<text text-anchor="middle" x="103.238" y="-159.73" font-family="Times,serif" font-size="14.00">nn.Tanh</text>
<text text-anchor="middle" x="103.238" y="-144.73" font-family="Times,serif" font-size="14.00">Storage id: 13</text>
<text text-anchor="middle" x="103.238" y="-129.73" font-family="Times,serif" font-size="14.00">Dim: 200</text>
</g>
<!-- n12&#45;&gt;n13 -->
<g id="edge12" class="edge"><title>n12&#45;&gt;n13</title>
<path fill="none" stroke="black" d="M103.238,-221.8C103.238,-213.626 103.238,-204.846 103.238,-196.319"/>
<polygon fill="black" stroke="black" points="106.738,-196.102 103.238,-186.102 99.7377,-196.102 106.738,-196.102"/>
</g>
<!-- n14 -->
<g id="node14" class="node"><title>n14</title>
<ellipse fill="none" stroke="#ff4040" cx="103.238" cy="-37.4767" rx="88.2768" ry="37.4533"/>
<text text-anchor="middle" x="103.238" y="-48.7767" font-family="Times,serif" font-size="14.00">nn.Linear(200 &#45;&gt; 3)</text>
<text text-anchor="middle" x="103.238" y="-33.7767" font-family="Times,serif" font-size="14.00">Storage id: 14</text>
<text text-anchor="middle" x="103.238" y="-18.7767" font-family="Times,serif" font-size="14.00">Dim: 3</text>
</g>
<!-- n13&#45;&gt;n14 -->
<g id="edge13" class="edge"><title>n13&#45;&gt;n14</title>
<path fill="none" stroke="black" d="M103.238,-110.847C103.238,-102.672 103.238,-93.8927 103.238,-85.3661"/>
<polygon fill="black" stroke="black" points="106.738,-85.1485 103.238,-75.1485 99.7377,-85.1486 106.738,-85.1485"/>
</g>
</g>
</svg>
