<?xml version="1.0" encoding="UTF-8" standalone="no"?>
<!DOCTYPE svg PUBLIC "-//W3C//DTD SVG 1.1//EN"
 "http://www.w3.org/Graphics/SVG/1.1/DTD/svg11.dtd">
<!-- Generated by graphviz version 2.38.0 (20140413.2041)
 -->
<!-- Title: G Pages: 1 -->
<svg width="147pt" height="862pt"
 viewBox="0.00 0.00 147.00 862.00" xmlns="http://www.w3.org/2000/svg" xmlns:xlink="http://www.w3.org/1999/xlink">
<g id="graph0" class="graph" transform="scale(1 1) rotate(0) translate(4 858)">
<title>G</title>
<polygon fill="white" stroke="none" points="-4,4 -4,-858 143,-858 143,4 -4,4"/>
<!-- n1 -->
<g id="node1" class="node"><title>n1</title>
<polygon fill="none" stroke="beige" points="112.5,-854 26.5,-854 26.5,-801 112.5,-801 112.5,-854"/>
<text text-anchor="middle" x="69.5" y="-838.8" font-family="Times,serif" font-size="14.00">Input</text>
<text text-anchor="middle" x="69.5" y="-823.8" font-family="Times,serif" font-size="14.00">Storage id: 1</text>
<text text-anchor="middle" x="69.5" y="-808.8" font-family="Times,serif" font-size="14.00">Dim: 4629</text>
</g>
<!-- n2 -->
<g id="node2" class="node"><title>n2</title>
<polygon fill="none" stroke="#eee8cd" points="139,-765 0,-765 0,-712 139,-712 139,-765"/>
<text text-anchor="middle" x="69.5" y="-749.8" font-family="Times,serif" font-size="14.00">nn.Linear(4629 &#45;&gt; 50)</text>
<text text-anchor="middle" x="69.5" y="-734.8" font-family="Times,serif" font-size="14.00">Storage id: 2</text>
<text text-anchor="middle" x="69.5" y="-719.8" font-family="Times,serif" font-size="14.00">Dim: 50</text>
</g>
<!-- n1&#45;&gt;n2 -->
<g id="edge1" class="edge"><title>n1&#45;&gt;n2</title>
<path fill="none" stroke="black" d="M69.5,-800.868C69.5,-792.886 69.5,-783.932 69.5,-775.384"/>
<polygon fill="black" stroke="black" points="73.0001,-775.25 69.5,-765.25 66.0001,-775.25 73.0001,-775.25"/>
</g>
<!-- n3 -->
<g id="node3" class="node"><title>n3</title>
<polygon fill="none" stroke="darkorchid" points="112.5,-676 26.5,-676 26.5,-623 112.5,-623 112.5,-676"/>
<text text-anchor="middle" x="69.5" y="-660.8" font-family="Times,serif" font-size="14.00">nn.Sigmoid</text>
<text text-anchor="middle" x="69.5" y="-645.8" font-family="Times,serif" font-size="14.00">Storage id: 3</text>
<text text-anchor="middle" x="69.5" y="-630.8" font-family="Times,serif" font-size="14.00">Dim: 50</text>
</g>
<!-- n2&#45;&gt;n3 -->
<g id="edge2" class="edge"><title>n2&#45;&gt;n3</title>
<path fill="none" stroke="black" d="M69.5,-711.868C69.5,-703.886 69.5,-694.932 69.5,-686.384"/>
<polygon fill="black" stroke="black" points="73.0001,-686.25 69.5,-676.25 66.0001,-686.25 73.0001,-686.25"/>
</g>
<!-- n4 -->
<g id="node4" class="node"><title>n4</title>
<polygon fill="none" stroke="darkgoldenrod" points="132,-587 7,-587 7,-534 132,-534 132,-587"/>
<text text-anchor="middle" x="69.5" y="-571.8" font-family="Times,serif" font-size="14.00">nn.Linear(50 &#45;&gt; 50)</text>
<text text-anchor="middle" x="69.5" y="-556.8" font-family="Times,serif" font-size="14.00">Storage id: 4</text>
<text text-anchor="middle" x="69.5" y="-541.8" font-family="Times,serif" font-size="14.00">Dim: 50</text>
</g>
<!-- n3&#45;&gt;n4 -->
<g id="edge3" class="edge"><title>n3&#45;&gt;n4</title>
<path fill="none" stroke="black" d="M69.5,-622.868C69.5,-614.886 69.5,-605.932 69.5,-597.384"/>
<polygon fill="black" stroke="black" points="73.0001,-597.25 69.5,-587.25 66.0001,-597.25 73.0001,-597.25"/>
</g>
<!-- n5 -->
<g id="node5" class="node"><title>n5</title>
<polygon fill="none" stroke="#98f5ff" points="112.5,-498 26.5,-498 26.5,-445 112.5,-445 112.5,-498"/>
<text text-anchor="middle" x="69.5" y="-482.8" font-family="Times,serif" font-size="14.00">nn.Tanh</text>
<text text-anchor="middle" x="69.5" y="-467.8" font-family="Times,serif" font-size="14.00">Storage id: 5</text>
<text text-anchor="middle" x="69.5" y="-452.8" font-family="Times,serif" font-size="14.00">Dim: 50</text>
</g>
<!-- n4&#45;&gt;n5 -->
<g id="edge4" class="edge"><title>n4&#45;&gt;n5</title>
<path fill="none" stroke="black" d="M69.5,-533.868C69.5,-525.886 69.5,-516.932 69.5,-508.384"/>
<polygon fill="black" stroke="black" points="73.0001,-508.25 69.5,-498.25 66.0001,-508.25 73.0001,-508.25"/>
</g>
<!-- n6 -->
<g id="node6" class="node"><title>n6</title>
<polygon fill="none" stroke="cyan" points="132,-409 7,-409 7,-356 132,-356 132,-409"/>
<text text-anchor="middle" x="69.5" y="-393.8" font-family="Times,serif" font-size="14.00">nn.Linear(50 &#45;&gt; 50)</text>
<text text-anchor="middle" x="69.5" y="-378.8" font-family="Times,serif" font-size="14.00">Storage id: 6</text>
<text text-anchor="middle" x="69.5" y="-363.8" font-family="Times,serif" font-size="14.00">Dim: 50</text>
</g>
<!-- n5&#45;&gt;n6 -->
<g id="edge5" class="edge"><title>n5&#45;&gt;n6</title>
<path fill="none" stroke="black" d="M69.5,-444.868C69.5,-436.886 69.5,-427.932 69.5,-419.384"/>
<polygon fill="black" stroke="black" points="73.0001,-419.25 69.5,-409.25 66.0001,-419.25 73.0001,-419.25"/>
</g>
<!-- n7 -->
<g id="node7" class="node"><title>n7</title>
<polygon fill="none" stroke="#cd5b45" points="112.5,-320 26.5,-320 26.5,-267 112.5,-267 112.5,-320"/>
<text text-anchor="middle" x="69.5" y="-304.8" font-family="Times,serif" font-size="14.00">nn.Tanh</text>
<text text-anchor="middle" x="69.5" y="-289.8" font-family="Times,serif" font-size="14.00">Storage id: 7</text>
<text text-anchor="middle" x="69.5" y="-274.8" font-family="Times,serif" font-size="14.00">Dim: 50</text>
</g>
<!-- n6&#45;&gt;n7 -->
<g id="edge6" class="edge"><title>n6&#45;&gt;n7</title>
<path fill="none" stroke="black" d="M69.5,-355.868C69.5,-347.886 69.5,-338.932 69.5,-330.384"/>
<polygon fill="black" stroke="black" points="73.0001,-330.25 69.5,-320.25 66.0001,-330.25 73.0001,-330.25"/>
</g>
<!-- n8 -->
<g id="node8" class="node"><title>n8</title>
<polygon fill="none" stroke="#7fffd4" points="132,-231 7,-231 7,-178 132,-178 132,-231"/>
<text text-anchor="middle" x="69.5" y="-215.8" font-family="Times,serif" font-size="14.00">nn.Linear(50 &#45;&gt; 50)</text>
<text text-anchor="middle" x="69.5" y="-200.8" font-family="Times,serif" font-size="14.00">Storage id: 8</text>
<text text-anchor="middle" x="69.5" y="-185.8" font-family="Times,serif" font-size="14.00">Dim: 50</text>
</g>
<!-- n7&#45;&gt;n8 -->
<g id="edge7" class="edge"><title>n7&#45;&gt;n8</title>
<path fill="none" stroke="black" d="M69.5,-266.868C69.5,-258.886 69.5,-249.932 69.5,-241.384"/>
<polygon fill="black" stroke="black" points="73.0001,-241.25 69.5,-231.25 66.0001,-241.25 73.0001,-241.25"/>
</g>
<!-- n9 -->
<g id="node9" class="node"><title>n9</title>
<polygon fill="none" stroke="blanchedalmond" points="112.5,-142 26.5,-142 26.5,-89 112.5,-89 112.5,-142"/>
<text text-anchor="middle" x="69.5" y="-126.8" font-family="Times,serif" font-size="14.00">nn.Tanh</text>
<text text-anchor="middle" x="69.5" y="-111.8" font-family="Times,serif" font-size="14.00">Storage id: 9</text>
<text text-anchor="middle" x="69.5" y="-96.8" font-family="Times,serif" font-size="14.00">Dim: 50</text>
</g>
<!-- n8&#45;&gt;n9 -->
<g id="edge8" class="edge"><title>n8&#45;&gt;n9</title>
<path fill="none" stroke="black" d="M69.5,-177.868C69.5,-169.886 69.5,-160.932 69.5,-152.384"/>
<polygon fill="black" stroke="black" points="73.0001,-152.25 69.5,-142.25 66.0001,-152.25 73.0001,-152.25"/>
</g>
<!-- n10 -->
<g id="node10" class="node"><title>n10</title>
<polygon fill="none" stroke="#8b6508" points="129,-53 10,-53 10,-0 129,-0 129,-53"/>
<text text-anchor="middle" x="69.5" y="-37.8" font-family="Times,serif" font-size="14.00">nn.Linear(50 &#45;&gt; 6)</text>
<text text-anchor="middle" x="69.5" y="-22.8" font-family="Times,serif" font-size="14.00">Storage id: 10</text>
<text text-anchor="middle" x="69.5" y="-7.8" font-family="Times,serif" font-size="14.00">Dim: 6</text>
</g>
<!-- n9&#45;&gt;n10 -->
<g id="edge9" class="edge"><title>n9&#45;&gt;n10</title>
<path fill="none" stroke="black" d="M69.5,-88.8677C69.5,-80.8856 69.5,-71.9321 69.5,-63.3836"/>
<polygon fill="black" stroke="black" points="73.0001,-63.2497 69.5,-53.2497 66.0001,-63.2498 73.0001,-63.2497"/>
</g>
</g>
</svg>
